<?xml version="1.0" encoding="UTF-8"?>
<svg version="1.1" xmlns="http://www.w3.org/2000/svg" width="480" height="270">
<path d="M0 0 C158.4 0 316.8 0 480 0 C480 89.1 480 178.2 480 270 C321.6 270 163.2 270 0 270 C0 180.9 0 91.8 0 0 Z " fill="#010101" transform="translate(0,0)"/>
<path d="M0 0 C1.08063721 -0.01410919 2.16127441 -0.02821838 3.2746582 -0.04275513 C21.6960627 -0.13477833 21.6960627 -0.13477833 27.19775391 4.71679688 C29.80719443 7.55714832 31.71770938 10.71358289 33.625 14.0625 C34.80881931 15.62306958 36.01195115 17.16959335 37.25 18.6875 C39.625 21.79730663 39.625 21.79730663 39.625 24.0625 C40.71441895 24.03631592 41.80383789 24.01013184 42.92626953 23.9831543 C46.98514097 23.89235339 51.04392345 23.83514316 55.10351562 23.7878418 C56.85725015 23.76276533 58.61088086 23.72869505 60.36425781 23.68530273 C62.89153706 23.62434396 65.41742981 23.59622281 67.9453125 23.57421875 C68.72367462 23.54841232 69.50203674 23.5226059 70.3039856 23.49601746 C74.38866775 23.49393375 76.87565592 23.85442814 80.10498047 26.46801758 C84.23837128 30.72354404 83.78984321 34.1494849 83.81787109 39.82324219 C83.83013733 41.18447708 83.83013733 41.18447708 83.84265137 42.57321167 C83.86752332 45.58525936 83.88402654 48.59725984 83.8984375 51.609375 C83.90376118 52.63711281 83.90908485 53.66485062 83.91456985 54.72373199 C83.94131004 60.16412104 83.96068164 65.60448707 83.97509766 71.04492188 C83.99174206 76.66525137 84.03651594 82.28499409 84.0874691 87.90510178 C84.12112277 92.2254097 84.1326731 96.54557809 84.13832474 100.86600494 C84.14504304 102.93766002 84.16028007 105.00930574 84.18421555 107.08083344 C84.21582741 109.98243514 84.21590963 112.88245105 84.20849609 115.78417969 C84.22490143 116.63843536 84.24130676 117.49269104 84.25820923 118.37283325 C84.21427002 122.57892216 83.9045884 125.2470999 81.21353149 128.57989502 C77.4326538 132.20605364 75.64646188 132.19127334 70.50250244 132.21640015 C68.54247284 132.22930084 68.54247284 132.22930084 66.54284668 132.24246216 C65.08618204 132.24689756 63.62951697 132.2511959 62.17285156 132.25537109 C60.64536349 132.263271 59.11787729 132.27153988 57.59039307 132.28015137 C52.56548855 132.30638583 47.54057563 132.32168105 42.515625 132.3359375 C40.7865778 132.34129672 39.05753066 132.34667422 37.32848358 132.35206985 C30.13632556 132.37370124 22.94416979 132.39243806 15.75198746 132.40369225 C5.44122827 132.41993173 -4.86915407 132.45310632 -15.17977118 132.51009309 C-22.42740377 132.54878611 -29.67493553 132.5683242 -36.9226687 132.57361281 C-41.25234571 132.57726736 -45.58162094 132.58929902 -49.91118622 132.62171555 C-53.98574859 132.65178497 -58.05966584 132.65811235 -62.13431549 132.64633179 C-63.62827458 132.64611095 -65.1222635 132.65442465 -66.61611938 132.67198563 C-79.30857639 132.8130467 -79.30857639 132.8130467 -83.24810791 129.71353149 C-86.89331238 125.1700232 -86.54540483 120.86992526 -86.58374023 115.29589844 C-86.59841591 113.9514843 -86.59841591 113.9514843 -86.61338806 112.57991028 C-86.64332859 109.61058028 -86.66472375 106.64129527 -86.68359375 103.671875 C-86.69016558 102.65733498 -86.6967374 101.64279495 -86.70350838 100.59751129 C-86.73609607 95.22729384 -86.76054843 89.85709619 -86.7800293 84.48681641 C-86.79784328 80.04413988 -86.83266626 75.60209797 -86.88256836 71.15966797 C-86.94277081 65.79394029 -86.97350511 60.42880111 -86.98320198 55.06275177 C-86.99175751 53.01981001 -87.01057797 50.97688402 -87.0399456 48.93413544 C-87.0788919 46.07095442 -87.07989077 43.21006308 -87.07202148 40.34667969 C-87.09202209 39.50694107 -87.11202271 38.66720245 -87.13262939 37.80201721 C-87.06512084 32.31530788 -85.72911351 29.39867776 -82.06330013 25.32137871 C-78.83525368 22.91439024 -75.4301382 23.50754874 -71.6015625 23.8984375 C-69.88248888 23.99122399 -68.16305427 24.07750466 -66.44335938 24.15795898 C-65.55414795 24.20701385 -64.66493652 24.25606873 -63.7487793 24.30661011 C-50.03028748 25.49335628 -50.03028748 25.49335628 -37.70996094 20.98486328 C-35.79185719 18.23985048 -34.30679124 15.52599388 -32.875 12.5 C-26.06049262 -1.32250463 -13.74436134 -0.04420745 0 0 Z " fill="#040404" transform="translate(241.375,67.9375)"/>
<path d="M0 0 C0.86625 0.680625 1.7325 1.36125 2.625 2.0625 C3.615 2.76375 4.605 3.465 5.625 4.1875 C12.54854931 10.09073678 16.12130856 18.95665938 16.99609375 27.82421875 C17.18946252 39.25572552 15.35994333 47.94902259 7.8125 57 C-0.36061229 65.43233413 -9.70740483 69.04826334 -21.4375 69.5 C-27.42389773 69.32210963 -32.10056741 67.83440115 -37.375 65.0625 C-38.14714844 64.66160156 -38.91929687 64.26070313 -39.71484375 63.84765625 C-46.34102305 59.93990948 -50.3816946 54.54927778 -54.375 48.0625 C-54.75914062 47.43859375 -55.14328125 46.8146875 -55.5390625 46.171875 C-59.32548724 38.31592834 -58.75429325 25.77819514 -55.9375 17.625 C-50.95090468 7.31819911 -41.60155927 -0.71901537 -31 -4.8125 C-20.11886583 -7.96180573 -9.67992752 -5.55699543 0 0 Z " fill="#040404" transform="translate(261.375,115.9375)"/>
<path d="M0 0 C1.08063721 -0.01410919 2.16127441 -0.02821838 3.2746582 -0.04275513 C21.6960627 -0.13477833 21.6960627 -0.13477833 27.19775391 4.71679688 C29.80719443 7.55714832 31.71770938 10.71358289 33.625 14.0625 C34.80881931 15.62306958 36.01195115 17.16959335 37.25 18.6875 C39.625 21.79730663 39.625 21.79730663 39.625 24.0625 C40.71441895 24.03631592 41.80383789 24.01013184 42.92626953 23.9831543 C46.98514097 23.89235339 51.04392345 23.83514316 55.10351562 23.7878418 C56.85725015 23.76276533 58.61088086 23.72869505 60.36425781 23.68530273 C62.89153706 23.62434396 65.41742981 23.59622281 67.9453125 23.57421875 C68.72367462 23.54841232 69.50203674 23.5226059 70.3039856 23.49601746 C74.38866775 23.49393375 76.87565592 23.85442814 80.10498047 26.46801758 C84.23837128 30.72354404 83.78984321 34.1494849 83.81787109 39.82324219 C83.83013733 41.18447708 83.83013733 41.18447708 83.84265137 42.57321167 C83.86752332 45.58525936 83.88402654 48.59725984 83.8984375 51.609375 C83.90376118 52.63711281 83.90908485 53.66485062 83.91456985 54.72373199 C83.94131004 60.16412104 83.96068164 65.60448707 83.97509766 71.04492188 C83.99174206 76.66525137 84.03651594 82.28499409 84.0874691 87.90510178 C84.12112277 92.2254097 84.1326731 96.54557809 84.13832474 100.86600494 C84.14504304 102.93766002 84.16028007 105.00930574 84.18421555 107.08083344 C84.21582741 109.98243514 84.21590963 112.88245105 84.20849609 115.78417969 C84.22490143 116.63843536 84.24130676 117.49269104 84.25820923 118.37283325 C84.21427002 122.57892216 83.9045884 125.2470999 81.21353149 128.57989502 C77.4326538 132.20605364 75.64646188 132.19127334 70.50250244 132.21640015 C68.54247284 132.22930084 68.54247284 132.22930084 66.54284668 132.24246216 C65.08618204 132.24689756 63.62951697 132.2511959 62.17285156 132.25537109 C60.64536349 132.263271 59.11787729 132.27153988 57.59039307 132.28015137 C52.56548855 132.30638583 47.54057563 132.32168105 42.515625 132.3359375 C40.7865778 132.34129672 39.05753066 132.34667422 37.32848358 132.35206985 C30.13632556 132.37370124 22.94416979 132.39243806 15.75198746 132.40369225 C5.44122827 132.41993173 -4.86915407 132.45310632 -15.17977118 132.51009309 C-22.42740377 132.54878611 -29.67493553 132.5683242 -36.9226687 132.57361281 C-41.25234571 132.57726736 -45.58162094 132.58929902 -49.91118622 132.62171555 C-53.98574859 132.65178497 -58.05966584 132.65811235 -62.13431549 132.64633179 C-63.62827458 132.64611095 -65.1222635 132.65442465 -66.61611938 132.67198563 C-79.30857639 132.8130467 -79.30857639 132.8130467 -83.24810791 129.71353149 C-86.89331238 125.1700232 -86.54540483 120.86992526 -86.58374023 115.29589844 C-86.59841591 113.9514843 -86.59841591 113.9514843 -86.61338806 112.57991028 C-86.64332859 109.61058028 -86.66472375 106.64129527 -86.68359375 103.671875 C-86.69016558 102.65733498 -86.6967374 101.64279495 -86.70350838 100.59751129 C-86.73609607 95.22729384 -86.76054843 89.85709619 -86.7800293 84.48681641 C-86.79784328 80.04413988 -86.83266626 75.60209797 -86.88256836 71.15966797 C-86.94277081 65.79394029 -86.97350511 60.42880111 -86.98320198 55.06275177 C-86.99175751 53.01981001 -87.01057797 50.97688402 -87.0399456 48.93413544 C-87.0788919 46.07095442 -87.07989077 43.21006308 -87.07202148 40.34667969 C-87.09202209 39.50694107 -87.11202271 38.66720245 -87.13262939 37.80201721 C-87.06512084 32.31530788 -85.72911351 29.39867776 -82.06330013 25.32137871 C-78.83525368 22.91439024 -75.4301382 23.50754874 -71.6015625 23.8984375 C-69.88248888 23.99122399 -68.16305427 24.07750466 -66.44335938 24.15795898 C-65.55414795 24.20701385 -64.66493652 24.25606873 -63.7487793 24.30661011 C-50.03028748 25.49335628 -50.03028748 25.49335628 -37.70996094 20.98486328 C-35.79185719 18.23985048 -34.30679124 15.52599388 -32.875 12.5 C-26.06049262 -1.32250463 -13.74436134 -0.04420745 0 0 Z M-83.375 31.0625 C-84.10342638 33.10092093 -84.10342638 33.10092093 -84.00991821 35.19873047 C-84.02401733 35.98930847 -84.03811646 36.77988647 -84.05264282 37.59442139 C-84.04252167 38.4475592 -84.03240051 39.30069702 -84.02197266 40.1796875 C-84.03073425 41.0892218 -84.03949585 41.9987561 -84.04852295 42.93585205 C-84.07049687 45.93688926 -84.05597116 48.93644829 -84.0390625 51.9375 C-84.0424312 54.02588178 -84.04728428 56.11426165 -84.05355835 58.20263672 C-84.06092697 62.57733851 -84.05022418 66.9515295 -84.02685547 71.32617188 C-83.99836807 76.93208473 -84.01477204 82.53680073 -84.04471779 88.14266968 C-84.06279081 92.45443734 -84.05703263 96.76592152 -84.04407883 101.07769775 C-84.04074485 103.14455304 -84.04483159 105.21143411 -84.05647659 107.27825928 C-84.06918509 110.16796983 -84.04980802 113.05574595 -84.02197266 115.9453125 C-84.03209381 116.79845032 -84.04221497 117.65158813 -84.05264282 118.53057861 C-84.0385437 119.32115662 -84.02444458 120.11173462 -84.00991821 120.92626953 C-84.00803308 121.6083548 -84.00614796 122.29044006 -84.0042057 122.99319458 C-82.98189934 126.35531301 -81.08338612 127.90316433 -78.375 130.0625 C-75.32465751 130.80719497 -75.32465751 130.80719497 -71.9609375 130.69741821 C-70.66551025 130.71151733 -69.37008301 130.72561646 -68.03540039 130.74014282 C-66.60693008 130.73042208 -65.17846324 130.72018128 -63.75 130.70947266 C-62.24014227 130.71625055 -60.73029281 130.72515466 -59.22045898 130.73602295 C-55.12530215 130.75880294 -51.03077565 130.74998569 -46.93560791 130.73412752 C-42.64846101 130.72146164 -38.36136779 130.73321054 -34.07421875 130.74105835 C-26.87490151 130.75015293 -19.67584079 130.73817212 -12.4765625 130.71435547 C-4.15517113 130.68714441 4.16560772 130.69595872 12.48698425 130.7234875 C19.63365418 130.74618311 26.78013979 130.74937648 33.92683411 130.73629415 C38.19432616 130.72850207 42.46153038 130.72745119 46.72900391 130.74397659 C50.74132942 130.75842887 54.75286587 130.74838676 58.7651062 130.71950531 C60.23687429 130.7128984 61.70870888 130.71478557 63.18045044 130.72581863 C65.19058854 130.73949763 67.2008719 130.71929529 69.2109375 130.69741821 C70.3354834 130.69553308 71.4600293 130.69364796 72.61865234 130.6917057 C76.62292194 129.85364253 78.12527382 128.24125103 80.625 125.0625 C81.35097852 123.02080977 81.35097852 123.02080977 81.25318909 120.91954041 C81.26584305 120.12751724 81.27849701 119.33549408 81.29153442 118.51947021 C81.27399612 117.23740692 81.27399612 117.23740692 81.25610352 115.92944336 C81.26325882 115.01830276 81.27041412 114.10716217 81.27778625 113.16841125 C81.29466836 110.16254241 81.27527487 107.15816586 81.25390625 104.15234375 C81.25473492 102.06156796 81.25719422 99.97079223 81.26121521 97.88002014 C81.26407279 93.50111246 81.24937424 89.1227164 81.22192383 84.74389648 C81.18782036 79.12904074 81.19386682 73.51509858 81.2125864 67.90019894 C81.22315019 63.58419672 81.21422451 59.26840742 81.19920158 54.952425 C81.19401619 52.88195999 81.19450589 50.81147277 81.20074654 48.74101067 C81.20619198 45.8489072 81.18584572 42.95811607 81.15844727 40.06616211 C81.16497314 39.20942902 81.17149902 38.35269592 81.17822266 37.47000122 C81.11448875 32.65541575 81.11448875 32.65541575 78.71665955 28.56227112 C75.13755993 25.99596904 73.00210268 25.93045464 68.60966492 25.90859985 C67.32677582 25.89999939 66.04388672 25.89139893 64.72212219 25.88253784 C63.29220622 25.87810248 61.86228981 25.87380413 60.43237305 25.86962891 C58.9328187 25.86172898 57.43326625 25.8534601 55.93371582 25.84484863 C51.00140197 25.8186171 46.06907957 25.80332046 41.13671875 25.7890625 C39.4398428 25.78370339 37.74296691 25.77832589 36.04609108 25.77293015 C28.9886114 25.75130028 21.93113402 25.73256279 14.87362957 25.72130775 C4.75354441 25.70506336 -5.36615711 25.67187519 -15.48609763 25.61490691 C-22.59868387 25.57623058 -29.7111674 25.55667785 -36.82385606 25.55138719 C-41.07357963 25.54773069 -45.32289414 25.53567826 -49.57250404 25.50328445 C-53.57073476 25.47324384 -57.56830805 25.46687726 -61.5666275 25.47866821 C-63.03359361 25.47888928 -64.50058986 25.47055623 -65.9674511 25.45301437 C-67.97107737 25.43035885 -69.9750012 25.44159097 -71.97871399 25.45449829 C-73.660316 25.44953307 -73.660316 25.44953307 -75.37588978 25.44446754 C-79.38084307 26.26977603 -80.87671273 27.88637956 -83.375 31.0625 Z " fill="#FCFCFC" transform="translate(241.375,67.9375)"/>
<path d="M0 0 C3.08737298 0.05148061 6.15534203 -0.0198801 9.24169922 -0.1027832 C24.41279197 -0.19553083 24.41279197 -0.19553083 28.8918457 4.13452148 C31.26152776 7.00411052 32.91578587 10.17037137 34.58935547 13.48901367 C36.1319592 15.49638106 36.1319592 15.49638106 37.65185547 17.11401367 C39.58935547 19.48901367 39.58935547 19.48901367 39.58935547 21.48901367 C15.16935547 21.48901367 -9.25064453 21.48901367 -34.41064453 21.48901367 C-32.43064453 18.51901367 -30.45064453 15.54901367 -28.41064453 12.48901367 C-27.82863281 11.42158936 -27.24662109 10.35416504 -26.64697266 9.25439453 C-20.25660864 -1.00733691 -10.9751823 -0.22832158 0 0 Z " fill="#0A0A0A" transform="translate(238.41064453125,70.510986328125)"/>
<path d="M0 0 C0.86625 0.680625 1.7325 1.36125 2.625 2.0625 C3.615 2.76375 4.605 3.465 5.625 4.1875 C12.54854931 10.09073678 16.12130856 18.95665938 16.99609375 27.82421875 C17.18946252 39.25572552 15.35994333 47.94902259 7.8125 57 C-0.36061229 65.43233413 -9.70740483 69.04826334 -21.4375 69.5 C-27.42389773 69.32210963 -32.10056741 67.83440115 -37.375 65.0625 C-38.14714844 64.66160156 -38.91929687 64.26070313 -39.71484375 63.84765625 C-46.34102305 59.93990948 -50.3816946 54.54927778 -54.375 48.0625 C-54.75914062 47.43859375 -55.14328125 46.8146875 -55.5390625 46.171875 C-59.32548724 38.31592834 -58.75429325 25.77819514 -55.9375 17.625 C-50.95090468 7.31819911 -41.60155927 -0.71901537 -31 -4.8125 C-20.11886583 -7.96180573 -9.67992752 -5.55699543 0 0 Z M-37.375 1.0625 C-38.05949219 1.475 -38.74398437 1.8875 -39.44921875 2.3125 C-46.31483983 6.91573547 -51.96419836 14.10230591 -54.375 22.0625 C-55.63120815 33.16088729 -55.09963083 43.39008267 -48.52734375 52.671875 C-42.32708798 60.27872237 -35.31313478 65.30845114 -25.4375 66.5625 C-14.46380465 67.12522013 -5.50440856 65.02870838 3 57.875 C7.30580879 53.71955279 10.22829985 49.52572043 12.625 44.0625 C13.058125 43.134375 13.49125 42.20625 13.9375 41.25 C15.96349198 31.85676445 15.2853015 21.84873419 10.078125 13.6171875 C4.17904181 5.70823968 -3.37824924 -1.07969676 -13.375 -2.9375 C-22.0962263 -3.55681875 -29.78509563 -3.72797218 -37.375 1.0625 Z " fill="#DCDCDC" transform="translate(261.375,115.9375)"/>
<path d="M0 0 C3.75212276 2.01502889 5.63644095 3.45466142 8 7 C8.47364652 11.81540624 8.49199653 14.05114955 6.25 18.375 C2.85854852 22.33169339 1.32119623 22.85083268 -3.875 23.4375 C-7.12458092 23.3646122 -8.89939678 22.71798257 -11.4375 20.6875 C-14.92518761 17.02968129 -15.39638535 14.08521456 -15.359375 9.0703125 C-14.71820971 5.3766429 -12.64068388 3.57781045 -10 1 C-6.78734554 -0.60632723 -3.48478188 -0.47931944 0 0 Z " fill="#0A0A0A" transform="translate(302,107)"/>
<path d="M0 0 C0.99 0.33 1.98 0.66 3 1 C-0.75 5.875 -0.75 5.875 -3 7 C-5.04108406 7.10266546 -7.08557655 7.13952387 -9.12922668 7.14717102 C-10.43735825 7.15432632 -11.74548981 7.16148163 -13.09326172 7.16885376 C-14.55151343 7.17169416 -16.00976541 7.17440587 -17.46801758 7.17700195 C-18.99712784 7.18326543 -20.52623657 7.18991212 -22.05534363 7.19691467 C-26.21657993 7.21433462 -30.37780473 7.22487905 -34.53906846 7.2331202 C-37.13786599 7.23826805 -39.73665994 7.24434386 -42.33545494 7.25063133 C-50.46356279 7.26968583 -58.59166153 7.28391665 -66.71978742 7.2922433 C-76.10783784 7.30201897 -85.49565269 7.32834591 -94.88362008 7.36874419 C-102.13633451 7.39888498 -109.38898133 7.41371022 -116.64175719 7.41702431 C-120.97524978 7.41937706 -125.30849077 7.42836639 -129.64191628 7.45348549 C-133.71887481 7.4767359 -137.79541557 7.48101186 -141.87242317 7.47072411 C-143.36840452 7.4702279 -144.86440622 7.47657344 -146.36032486 7.49028015 C-148.40341445 7.5079523 -150.44668479 7.49852288 -152.48982239 7.48774719 C-153.63301343 7.49013555 -154.77620447 7.4925239 -155.95403767 7.49498463 C-159.66563593 6.89183072 -161.36496839 5.63679647 -164 3 C-164 2.34 -164 1.68 -164 1 C-162 2 -160 3 -158 4 C-155.98200146 4.1025978 -153.9605624 4.13952006 -151.93997192 4.14717102 C-150.64722351 4.15432632 -149.3544751 4.16148163 -148.02255249 4.16885376 C-146.58160424 4.17169414 -145.14065574 4.17440586 -143.69970703 4.17700195 C-142.18867842 4.18326542 -140.67765135 4.18991211 -139.16662598 4.19691467 C-135.05504208 4.21433327 -130.94346982 4.22487841 -126.83185816 4.2331202 C-124.26456022 4.23826772 -121.69726592 4.24434351 -119.12997055 4.25063133 C-111.10171083 4.26968438 -103.07346033 4.28391621 -95.04518235 4.2922433 C-85.76975171 4.30202222 -76.49455931 4.32835819 -67.21921265 4.36874419 C-60.0548358 4.39887136 -52.89052739 4.41370887 -45.7260884 4.41702431 C-41.44460545 4.41937838 -37.16337698 4.4283849 -32.88196182 4.45348549 C-28.85507215 4.47671252 -24.82860547 4.48102136 -20.80166626 4.47072411 C-19.32300283 4.47022734 -17.84431896 4.47658905 -16.36571884 4.49028015 C-14.34855458 4.50791442 -12.33120785 4.4985353 -10.31399536 4.48774719 C-9.18463121 4.49013555 -8.05526707 4.4925239 -6.89167976 4.49498463 C-3.38659336 3.89499983 -2.21082969 2.71230287 0 0 Z " fill="#FEFEFE" transform="translate(321,193)"/>
<path d="M0 0 C0.66 0 1.32 0 2 0 C2.33 31.68 2.66 63.36 3 96 C1.515 96.495 1.515 96.495 0 97 C-1.31901136 93.04296592 -1.13913427 89.26296483 -1.12939453 85.13818359 C-1.13114685 84.23226974 -1.13289917 83.3263559 -1.13470459 82.39299011 C-1.13911061 79.3947865 -1.13618998 76.39664173 -1.1328125 73.3984375 C-1.13348578 71.32003773 -1.13445601 69.24163803 -1.13571167 67.16323853 C-1.13718685 62.80706025 -1.13503939 58.45090246 -1.13037109 54.09472656 C-1.12466683 48.49772707 -1.12795836 42.90077544 -1.13394356 37.30377769 C-1.13754797 33.01284419 -1.13641126 28.72192215 -1.13381577 24.43098831 C-1.13314653 22.36641052 -1.1339748 20.3018317 -1.13629532 18.2372551 C-1.13882064 15.35915092 -1.13498329 12.48112561 -1.12939453 9.60302734 C-1.13141876 8.74171707 -1.13344299 7.8804068 -1.13552856 6.99299622 C-1.11426389 1.11426389 -1.11426389 1.11426389 0 0 Z " fill="#CECDCE" transform="translate(156,98)"/>
<path d="M0 0 C0.99 0.33 1.98 0.66 3 1 C3 32.02 3 63.04 3 95 C2.01 95 1.02 95 0 95 C0 63.65 0 32.3 0 0 Z " fill="#CCCCCC" transform="translate(322,98)"/>
<path d="M0 0 C0.66 0.33 1.32 0.66 2 1 C1.47085751 3.64571246 0.68272523 5.64926847 -0.515625 8.1015625 C-2.34585333 12.34193173 -2.49951084 16.23968467 -2.4375 20.8125 C-2.42396484 22.0044397 -2.42396484 22.0044397 -2.41015625 23.22045898 C-2.12375441 32.95116046 0.81031715 39.89652307 7.625 46.94921875 C15.59560161 53.83172837 23.78749427 56.04764044 34.140625 55.4765625 C38.73498892 54.90924226 42.63957908 53.7378273 46.86328125 51.875 C49 51 49 51 52 51 C52 51.66 52 52.32 52 53 C42.30169854 58.19551864 32.33177443 61.14071868 21.32421875 58.3125 C18.77208849 57.35991639 16.41089246 56.26700938 14 55 C13.22785156 54.59910156 12.45570313 54.19820312 11.66015625 53.78515625 C5.03397695 49.87740948 0.9933054 44.48677778 -3 38 C-3.38414062 37.37609375 -3.76828125 36.7521875 -4.1640625 36.109375 C-7.74650082 28.67665251 -7.20239482 17.65151799 -5.16796875 9.78125 C-3.76079208 6.19742926 -2.13718092 3.20577138 0 0 Z " fill="#D8D8D8" transform="translate(210,126)"/>
<path d="M0 0 C3.25147707 0.14279804 6.47368796 0.12327302 9.72753906 0.08349609 C25.4858264 0.21652729 25.4858264 0.21652729 30.58886719 4.64501953 C33.22396105 7.48565451 35.14452501 10.60801017 36.98535156 14.01708984 C37.98497843 15.68398033 38.98484191 17.35072908 39.98535156 19.01708984 C38.66535156 19.01708984 37.34535156 19.01708984 35.98535156 19.01708984 C34.04018344 16.9245605 32.40121908 14.93750031 30.73535156 12.64208984 C30.04699219 11.73716797 30.04699219 11.73716797 29.34472656 10.81396484 C25.98535156 6.3148019 25.98535156 6.3148019 25.98535156 4.01708984 C19.81305689 3.73717676 13.65171618 3.57321489 7.47338867 3.51049805 C5.37886876 3.47362213 3.28463363 3.40656135 1.19213867 3.30737305 C-10.66836776 2.46364215 -10.66836776 2.46364215 -21.29937744 6.76202393 C-25.68599244 11.30309447 -29.03912385 16.46740537 -32.01464844 22.01708984 C-33.00464844 21.35708984 -33.99464844 20.69708984 -35.01464844 20.01708984 C-26.14871868 4.03876229 -18.24524761 -0.8575877 0 0 Z " fill="#F4F4F4" transform="translate(238.0146484375,67.98291015625)"/>
<path d="M0 0 C3.75212276 2.01502889 5.63644095 3.45466142 8 7 C8.47364652 11.81540624 8.49199653 14.05114955 6.25 18.375 C2.85854852 22.33169339 1.32119623 22.85083268 -3.875 23.4375 C-7.12458092 23.3646122 -8.89939678 22.71798257 -11.4375 20.6875 C-14.92518761 17.02968129 -15.39638535 14.08521456 -15.359375 9.0703125 C-14.71820971 5.3766429 -12.64068388 3.57781045 -10 1 C-6.78734554 -0.60632723 -3.48478188 -0.47931944 0 0 Z M-11 5 C-13.36086122 8.54129184 -13.57269578 9.82750218 -13 14 C-10.65515408 17.65520099 -9.1275273 19.60066741 -5 21.0625 C-1.4007401 20.98751542 0.17818954 20.19474147 3 18 C5.45618439 14.31572341 5.69019715 11.27922232 5 7 C2.97708097 3.96562145 1.57772802 3.18838957 -1.875 2.0625 C-5.74726087 1.98505478 -7.75468914 2.93480218 -11 5 Z " fill="#E6E6E6" transform="translate(302,107)"/>
<path d="M0 0 C0 0.66 0 1.32 0 2 C-0.96099609 2.16435547 -0.96099609 2.16435547 -1.94140625 2.33203125 C-10.11054311 3.82950343 -16.48869481 5.44121626 -21.78125 12.18359375 C-25.20180544 17.28153695 -25.49720003 23.04578987 -26 29 C-26.66 29 -27.32 29 -28 29 C-28.70044961 20.81252233 -27.71351144 14.84139587 -23 8 C-21.09329199 5.86837201 -19.42456456 4.63287001 -17 3 C-15.6696875 2.1028125 -15.6696875 2.1028125 -14.3125 1.1875 C-9.54398865 -0.52196633 -5.01348328 -0.2408613 0 0 Z " fill="#E2E2E2" transform="translate(244,122)"/>
<path d="M0 0 C0.66 0.33 1.32 0.66 2 1 C1.47263249 3.63683755 0.7063233 5.5753666 -0.53125 8 C-2.58584574 12.73638385 -2.33014952 17.3569824 -2.1875 22.4375 C-2.17396484 23.35982422 -2.16042969 24.28214844 -2.14648438 25.23242188 C-2.11140953 27.48890383 -2.06226387 29.74413226 -2 32 C-2.99 32 -3.98 32 -5 32 C-7.88606463 26.22787074 -6.73816154 15.9036686 -5.17578125 9.7578125 C-3.75301713 6.19296857 -2.13092829 3.19639244 0 0 Z " fill="#CDCDCD" transform="translate(210,126)"/>
<path d="M0 0 C0 0.33 0 0.66 0 1 C-0.95519531 1.14695312 -1.91039062 1.29390625 -2.89453125 1.4453125 C-15.57713299 3.64548469 -25.06256384 7.32645104 -33 18 C-33.69921875 16.2421875 -33.69921875 16.2421875 -34 14 C-26.39729953 2.07703482 -13.15334149 -1.05071071 0 0 Z " fill="#E7E7E7" transform="translate(245,111)"/>
<path d="M0 0 C0.33 0 0.66 0 1 0 C1.41776675 6.05761794 1.12264203 9.19025097 -3 14 C-5.96564172 16.33014707 -9.23318469 16.46517104 -12.9609375 16.40234375 C-16.56008123 15.69216788 -18.450853 13.549147 -21 11 C-20.34 9.68 -19.68 8.36 -19 7 C-18.195625 8.2065625 -18.195625 8.2065625 -17.375 9.4375 C-15.19968606 12.19165433 -15.19968606 12.19165433 -12.0625 13 C-8.25275209 13 -6.81775031 12.58293779 -4 10 C-3.26811975 7.95073529 -2.82043731 5.98433886 -2.45703125 3.83984375 C-2 2 -2 2 0 0 Z " fill="#D5D5D5" transform="translate(309,114)"/>
<path d="M0 0 C3.31078802 2.20719201 3.64844765 3.09221177 5.125 6.625 C8.62697926 13.98022087 14.59198848 18.24848125 21 23 C18 24 18 24 16.01953125 23.171875 C9.17924798 18.76503764 2.80810491 12.69946113 0.28125 4.734375 C0 2.8125 0 2.8125 0 0 Z " fill="#E7E7E7" transform="translate(206,157)"/>
<path d="M0 0 C10.58366845 -0.75002375 20.56280298 1.29351006 29 8 C30.875 9.75 30.875 9.75 32 11 C27.62172954 11 26.68648964 10.38746606 23.125 8.125 C17.47692548 4.87469296 12.40990356 4.05391899 5.96875 3.51953125 C2.85282825 2.97424494 1.87032369 2.47817889 0 0 Z " fill="#CDCDCD" transform="translate(235,110)"/>
<path d="M0 0 C0.99 0.33 1.98 0.66 3 1 C-1.03576801 7.25322296 -5.35437938 13.186102 -10 19 C-10.99 18.34 -11.98 17.68 -13 17 C-6.565 8.585 -6.565 8.585 0 0 Z " fill="#DEDEDE" transform="translate(216,71)"/>
<path d="M0 0 C4.40064304 1.54228144 6.59595898 5.01426977 9.25 8.625 C9.70890625 9.23601562 10.1678125 9.84703125 10.640625 10.4765625 C11.76751252 11.9790792 12.88472437 13.48884409 14 15 C13.67 15.66 13.34 16.32 13 17 C8.95093715 15.65031238 7.29364742 12.9096003 4.8125 9.625 C4.34908203 9.03460938 3.88566406 8.44421875 3.40820312 7.8359375 C0 3.37867038 0 3.37867038 0 0 Z " fill="#DDDDDD" transform="translate(264,71)"/>
<path d="M0 0 C0.66 0 1.32 0 2 0 C1.46684515 2.31033767 0.82868141 4.4604187 0 6.6875 C-1.23324104 10.77261094 -1.64205477 14.76117493 -2 19 C-2.66 19 -3.32 19 -4 19 C-4.50146657 11.42228293 -3.94998798 6.54216759 0 0 Z " fill="#E4E4E4" transform="translate(220,132)"/>
<path d="M0 0 C0.33 0 0.66 0 1 0 C0.50341703 5.66104589 -0.54510684 9.87674471 -3 15 C-3.99 15 -4.98 15 -6 15 C-3.02112676 4.11971831 -3.02112676 4.11971831 0 0 Z " fill="#D7D7D7" transform="translate(277,151)"/>
<path d="M0 0 C0.66 0 1.32 0 2 0 C3.01702117 3.0510635 3.16582083 5.24199061 3.1875 8.4375 C3.20167969 9.38496094 3.21585937 10.33242187 3.23046875 11.30859375 C3 14 3 14 1 18 C0.67 12.06 0.34 6.12 0 0 Z " fill="#F2F2F2" transform="translate(275,137)"/>
<path d="M0 0 C3.26265612 2.17510408 3.73936409 3.12949953 5.1875 6.625 C5.53167969 7.44226563 5.87585938 8.25953125 6.23046875 9.1015625 C6.48441406 9.72804687 6.73835937 10.35453125 7 11 C6.01 11.33 5.02 11.66 4 12 C3.32332002 10.75539217 2.65905281 9.50403104 2 8.25 C1.62875 7.55390625 1.2575 6.8578125 0.875 6.140625 C0 4 0 4 0 0 Z " fill="#DDDDDD" transform="translate(206,157)"/>
<path d="M0 0 C0.66 0.33 1.32 0.66 2 1 C1.29228053 4.68014125 -0.12896153 7.76166418 -2 11 C-2.99 11.33 -3.98 11.66 -5 12 C-4.54738642 10.56068883 -4.08767021 9.12361001 -3.625 7.6875 C-3.24214844 6.48673828 -3.24214844 6.48673828 -2.8515625 5.26171875 C-2 3 -2 3 0 0 Z " fill="#D6D6D6" transform="translate(210,126)"/>
<path d="M0 0 C1.32 0.66 2.64 1.32 4 2 C1.69 3.65 -0.62 5.3 -3 7 C-3.66 6.34 -4.32 5.68 -5 5 C-3.35 3.35 -1.7 1.7 0 0 Z " fill="#D3D3D3" transform="translate(225,126)"/>
<path d="M0 0 C0.99 0.33 1.98 0.66 3 1 C-0.625 5.875 -0.625 5.875 -4 7 C-4 4 -4 4 -2 1.8125 C-1.34 1.214375 -0.68 0.61625 0 0 Z " fill="#E8E8E8" transform="translate(321,193)"/>
<path d="M0 0 C2.71435596 0.93305986 3.78043163 1.62673377 5.25 4.125 C5.4975 4.74375 5.745 5.3625 6 6 C3 6 3 6 1.4375 4.625 C0.963125 4.08875 0.48875 3.5525 0 3 C-0.66 2.34 -1.32 1.68 -2 1 C-1.34 0.67 -0.68 0.34 0 0 Z " fill="#DCDCDC" transform="translate(318,93)"/>
<path d="M0 0 C0.66 0.33 1.32 0.66 2 1 C2 1.66 2 2.32 2 3 C0.37373596 4.38232443 -1.2925002 5.71937515 -3 7 C-3.66 6.34 -4.32 5.68 -5 5 C-3.35 3.35 -1.7 1.7 0 0 Z " fill="#DDDDDD" transform="translate(161,92)"/>
<path d="M0 0 C2.88437779 1.29299694 4.87219421 2.65941363 7 5 C6.01 5.495 6.01 5.495 5 6 C3.2925002 4.71937515 1.62626404 3.38232443 0 2 C0 1.34 0 0.68 0 0 Z " fill="#EFEFEF" transform="translate(157,194)"/>
<path d="M0 0 C3.68754757 0.49831724 5.60490662 1.10067643 8 4 C4 4 4 4 1.75 2 C1.1725 1.34 0.595 0.68 0 0 Z " fill="#ECECEC" transform="translate(259,117)"/>
</svg>
